# Alias OBJ Model File
# Exported from SketchUp, (c) 2000-2012 Trimble Navigation Limited
# File units = millimeters

mtllib SimpleMagneticConduction.mtl

g Mesh1 Model

usemtl WindingCurrentSecondBoundary
v 0 20 20
vt -0.787402 0.787402
vn -1 0 0
v 0 0 0
vt 0 0
v 0 0 20
vt 0 0.787402
f 1/1/1 2/2/1 3/3/1

v 0 20 2.81997e-15
vt -0.787402 1.11022e-16
f 2/2/1 1/1/1 4/4/1

usemtl BackColor
vn 1 -0 -0
f 3/3/2 2/2/2 1/1/2

usemtl MaterialBoundary
vn 0 -1 0
v 50 0 20
vt 1.9685 0.787402
f 2/2/3 5/5/3 3/3/3

v 50 0 0
vt 1.9685 0
f 5/5/3 2/2/3 6/6/3

usemtl BackColor
vn -0 1 -0
f 6/6/4 2/2/4 5/5/4

usemtl MaterialBoundary
vn -2.81997e-17 7.04992e-17 -1
v 50 20 0
vt -1.9685 0.787402
vt -1.9685 3.91349e-33
f 2/2/5 7/7/5 6/8/5

vt 3.13079e-33 0.787402
f 7/7/5 2/2/5 4/9/5

usemtl BackColor
vn 2.81997e-17 -7.04992e-17 1
f 4/9/6 2/2/6 7/7/6

f 4/4/2 1/1/2 2/2/2

usemtl MaterialBoundary
v 50 20 20
vn 0 1 0
vt 0 1.11022e-16
f 8/7/7 4/10/7 1/3/7

vt -1.9685 0
f 4/10/7 8/7/7 7/11/7

usemtl BackColor
vn -0 -1 -0
f 7/11/8 8/7/8 4/10/8

usemtl WindingCurrentFirstBoundary
vn 1 0 0
vt 0.787402 0
vt 0.787402 0.787402
f 5/3/9 7/12/9 8/13/9

f 7/12/9 5/3/9 6/2/9

usemtl BackColor
vn -1 -0 -0
f 6/2/10 5/3/10 7/12/10

usemtl FrontColor
v 50 -20 20
f 9/1/9 6/2/9 5/3/9

v 50 -20 0
vt -0.787402 0
f 6/2/9 9/1/9 10/14/9

usemtl MaterialBoundary
f 10/14/10 9/1/10 6/2/10

usemtl FrontColor
vn 2.81997e-17 -1 7.04992e-17
v 0 -20 0
vt -2.22045e-17 -5.55112e-17
vt 1.9685 -5.55112e-17
f 9/5/11 11/15/11 10/16/11

v 0 -20 20
vt -2.22045e-17 0.787402
f 11/15/11 9/5/11 12/17/11

usemtl MaterialBoundary
vn -2.81997e-17 1 -7.04992e-17
f 10/16/12 11/15/12 9/5/12

vt -1.9685 -0.787402
vn 0 0 -1
v 0 -40 0
vt 0 -1.5748
vt 0 -0.787402
f 10/18/13 13/19/13 11/20/13

v 50 -40 0
vt -1.9685 -1.5748
f 13/19/13 10/18/13 14/21/13

usemtl BackColor
vn -0 -0 1
f 11/20/14 13/19/14 10/18/14

usemtl MaterialBoundary
v -20 -40 0
vt 0.787402 -1.5748
f 15/22/13 11/20/13 13/19/13

v -20 -20 0
vt 0.787402 -0.787402
f 11/20/13 15/22/13 16/23/13

usemtl BackColor
f 16/23/14 15/22/14 11/20/14

usemtl MaterialBoundary
vt 1.5748 0
v -20 -20 20
f 15/24/1 17/13/1 16/12/1

v -20 -40 20
vt 1.5748 0.787402
f 17/13/1 15/24/1 18/25/1

usemtl BackColor
f 18/25/2 15/24/2 17/13/2

usemtl MaterialBoundary
v 0 -40 20
f 15/14/3 19/3/3 18/1/3

f 19/3/3 15/14/3 13/2/3

usemtl BackColor
f 13/2/4 15/14/4 19/3/4

f 13/19/14 11/20/14 15/22/14

f 18/1/4 19/3/4 15/14/4

usemtl MaterialBoundary
vn 0 0 1
vt -0.787402 -0.787402
vt -0.787402 -1.5748
f 19/19/15 17/26/15 18/27/15

f 17/26/15 19/19/15 12/20/15

usemtl BackColor
vn -0 -0 -1
f 18/27/16 17/26/16 19/19/16

f 12/20/16 19/19/16 17/26/16

usemtl MaterialBoundary
v 50 -40 20
vt 1.9685 -1.5748
f 20/28/15 12/20/15 19/19/15

vt 1.9685 -0.787402
f 12/20/15 20/28/15 9/29/15

usemtl BackColor
f 19/19/16 12/20/16 20/28/16

f 9/29/16 20/28/16 12/20/16

usemtl MaterialBoundary
v 70 -40 20
vt 2.75591 -1.5748
vn 7.04992e-17 7.04992e-17 1
f 21/30/17 9/29/17 20/28/17

v 70 -20 20
vt 2.75591 -0.787402
f 9/29/17 21/30/17 22/31/17

usemtl BackColor
vn -7.04992e-17 -7.04992e-17 -1
f 20/28/18 9/29/18 21/30/18

f 22/31/18 21/30/18 9/29/18

usemtl MaterialBoundary
vt -1.5748 0.787402
v 70 -20 0
f 21/32/9 23/14/9 22/1/9

v 70 -40 0
vt -1.5748 0
f 23/14/9 21/32/9 24/33/9

usemtl BackColor
f 24/33/10 21/32/10 23/14/10

usemtl MaterialBoundary
vt 2.75591 0.787402
vt 2.75591 0
f 21/34/3 14/6/3 24/35/3

f 14/6/3 21/34/3 20/5/3

usemtl BackColor
f 24/35/4 14/6/4 21/34/4

usemtl MaterialBoundary
vt -2.75591 -0.787402
vt -2.75591 -1.5748
f 14/21/13 23/36/13 24/37/13

f 23/36/13 14/21/13 10/18/13

usemtl BackColor
f 10/18/14 14/21/14 23/36/14

f 14/21/14 10/18/14 13/19/14

usemtl MaterialBoundary
f 20/5/3 13/2/3 14/6/3

f 13/2/3 20/5/3 19/3/3

usemtl BackColor
f 14/6/4 13/2/4 20/5/4

f 19/3/4 20/5/4 13/2/4

f 20/5/4 21/34/4 14/6/4

f 24/37/14 23/36/14 14/21/14

usemtl MaterialBoundary
v 70 0 0
vt -2.75591 0
f 10/18/13 25/38/13 23/36/13

f 25/38/13 10/18/13 6/11/13

usemtl BackColor
f 6/11/14 10/18/14 25/38/14

f 23/36/14 25/38/14 10/18/14

usemtl MaterialBoundary
f 25/2/9 22/1/9 23/14/9

v 70 0 20
f 22/1/9 25/2/9 26/3/9

usemtl BackColor
f 23/14/10 22/1/10 25/2/10

f 22/1/10 23/14/10 21/32/10

f 26/3/10 25/2/10 22/1/10

usemtl MaterialBoundary
v 70 20 0
f 27/12/9 26/3/9 25/2/9

v 70 20 20
f 26/3/9 27/12/9 28/13/9

usemtl BackColor
f 25/2/10 26/3/10 27/12/10

f 28/13/10 27/12/10 26/3/10

usemtl MaterialBoundary
vt -2.75591 0.787402
f 27/38/7 8/7/7 28/39/7

f 8/7/7 27/38/7 7/11/7

usemtl BackColor
f 7/11/8 27/38/8 8/7/8

usemtl MaterialBoundary
f 27/39/13 6/11/13 7/7/13

f 6/11/13 27/39/13 25/38/13

usemtl BackColor
f 7/7/14 6/11/14 27/39/14

f 6/8/6 7/7/6 2/2/6

f 25/38/14 27/39/14 6/11/14

f 28/39/8 8/7/8 27/38/8

usemtl MaterialBoundary
f 8/5/15 26/35/15 28/34/15

f 26/35/15 8/5/15 5/6/15

usemtl BackColor
f 5/6/16 8/5/16 26/35/16

f 8/13/10 7/12/10 5/3/10

usemtl MaterialBoundary
f 1/3/15 5/6/15 8/5/15

f 5/6/15 1/3/15 3/2/15

usemtl BackColor
f 3/2/16 1/3/16 5/6/16

usemtl MaterialBoundary
v -20 20 20
f 29/1/15 3/2/15 1/3/15

v -20 0 20
f 3/2/15 29/1/15 30/14/15

usemtl BackColor
f 30/14/16 29/1/16 3/2/16

usemtl MaterialBoundary
v -20 0 0
f 29/1/1 31/2/1 30/3/1

v -20 20 0
f 31/2/1 29/1/1 32/14/1

usemtl BackColor
f 30/3/2 31/2/2 29/1/2

usemtl MaterialBoundary
f 16/12/1 30/3/1 31/2/1

f 30/3/1 16/12/1 17/13/1

usemtl BackColor
f 17/13/2 16/12/2 30/3/2

f 16/12/2 17/13/2 15/24/2

f 31/2/2 30/3/2 16/12/2

usemtl MaterialBoundary
f 2/2/13 16/23/13 31/12/13

f 16/23/13 2/2/13 11/20/13

usemtl BackColor
f 31/12/14 16/23/14 2/2/14

f 11/20/14 2/2/14 16/23/14

usemtl FrontColor
f 11/12/1 3/3/1 2/2/1

f 3/3/1 11/12/1 12/13/1

usemtl MaterialBoundary
f 12/13/2 11/12/2 3/3/2

f 12/17/12 9/5/12 11/15/12

f 2/2/2 3/3/2 11/12/2

usemtl BackColor
f 3/3/4 5/5/4 2/2/4

usemtl MaterialBoundary
f 30/14/15 12/20/15 3/2/15

f 12/20/15 30/14/15 17/26/15

usemtl BackColor
f 17/26/16 30/14/16 12/20/16

f 3/2/16 12/20/16 30/14/16

usemtl MaterialBoundary
vt 0.787402 3.91349e-33
vn 7.04992e-17 7.04992e-17 -1
vt -7.82698e-33 0.787402
f 31/40/19 4/41/19 2/2/19

f 4/41/19 31/40/19 32/13/19

usemtl BackColor
vn -7.04992e-17 -7.04992e-17 1
f 32/13/20 31/40/20 4/41/20

f 32/14/2 29/1/2 31/2/2

usemtl MaterialBoundary
vn -1.40998e-16 1 2.68387e-33
vt -1.11022e-16 1.11022e-16
vt 0.787402 -2.11328e-33
f 29/13/21 4/42/21 32/43/21

vt -1.11022e-16 0.787402
f 4/42/21 29/13/21 1/44/21

usemtl BackColor
vn 1.40998e-16 -1 -2.68387e-33
f 32/43/22 4/42/22 29/13/22

f 1/44/22 29/13/22 4/42/22

f 1/3/16 3/2/16 29/1/16

f 1/3/8 4/10/8 8/7/8

f 8/5/16 5/6/16 1/3/16

f 2/2/20 4/41/20 31/40/20

f 28/34/16 26/35/16 8/5/16

usemtl MaterialBoundary
vt 1.9685 5.55112e-17
vn 7.04992e-17 -7.04992e-17 1
vt 2.75591 5.55112e-17
f 5/45/23 22/31/23 26/46/23

f 22/31/23 5/45/23 9/29/23

usemtl BackColor
vn -7.04992e-17 7.04992e-17 -1
f 9/29/24 5/45/24 22/31/24

usemtl MaterialBoundary
f 5/3/10 6/2/10 9/1/10

usemtl BackColor
f 26/46/24 22/31/24 5/45/24

g Mesh2 Model

usemtl WindingVolume
v 42.6152 9.07212 2.4434
vt 1.67776 0.35717
v 39.1944 9.07212 2.4434
vt 1.54309 0.35717
v 39.1944 6.16564 2.4434
vt 1.54309 0.242742
f 33/47/15 34/48/15 35/49/15

usemtl BackColor
f 35/49/16 34/48/16 33/47/16

g Mesh3 Model

usemtl FarFieldMagneticBoundary
v 120 80 -70
vt 3.14961 -2.75591
v 120 -80 90
vt -3.14961 3.54331
v 120 -80 -70
vt -3.14961 -2.75591
f 36/50/9 37/51/9 38/52/9

v 120 80 90
vt 3.14961 3.54331
f 37/51/9 36/50/9 39/53/9

usemtl BackColor
f 38/52/10 37/51/10 36/50/10

usemtl FarFieldMagneticBoundary
vt 4.72441 3.54331
v -70 -80 -70
vt -2.75591 -2.75591
vt 4.72441 -2.75591
f 37/54/3 40/55/3 38/56/3

v -70 -80 90
vt -2.75591 3.54331
f 40/55/3 37/54/3 41/57/3

usemtl BackColor
f 38/56/4 40/55/4 37/54/4

usemtl FarFieldMagneticBoundary
vt 2.75591 -3.14961
vn -5.12721e-17 7.04992e-17 -1
vt -4.72441 3.14961
vt -4.72441 -3.14961
f 40/58/25 36/59/25 38/60/25

v -70 80 -70
vt 2.75591 3.14961
f 36/59/25 40/58/25 42/61/25

usemtl BackColor
vn 5.12721e-17 -7.04992e-17 1
f 42/61/26 40/58/26 36/59/26

usemtl FarFieldMagneticBoundary
v -70 80 90
f 40/50/1 43/51/1 42/52/1

f 43/51/1 40/50/1 41/53/1

usemtl BackColor
f 41/53/2 40/50/2 43/51/2

f 41/57/4 37/54/4 40/55/4

usemtl FarFieldMagneticBoundary
vt 4.72441 -3.14961
vt -2.75591 3.14961
vt -2.75591 -3.14961
f 37/62/15 43/63/15 41/64/15

vt 4.72441 3.14961
f 43/63/15 37/62/15 39/65/15

usemtl BackColor
f 41/64/16 43/63/16 37/62/16

f 39/65/16 37/62/16 43/63/16

f 39/53/10 36/50/10 37/51/10

usemtl FarFieldMagneticBoundary
vt 2.75591 -2.75591
vt -4.72441 3.54331
vt -4.72441 -2.75591
f 42/66/7 39/67/7 36/68/7

vt 2.75591 3.54331
f 39/67/7 42/66/7 43/69/7

usemtl BackColor
f 36/68/8 39/67/8 42/66/8

f 43/69/8 42/66/8 39/67/8

f 42/52/2 43/51/2 40/50/2

f 38/60/26 36/59/26 40/58/26

g Mesh4 Model

usemtl CoreVolume
v 4.13781 -4.14605 -24.118
vt 0.162906 -0.16323
v 1.04677 -14.7902 -24.118
vt 0.0412116 -0.58229
v 4.13781 -14.7902 -24.118
vt 0.162906 -0.58229
f 44/70/15 45/71/15 46/72/15

usemtl BackColor
f 46/72/16 45/71/16 44/70/16

g Mesh5 Model

usemtl FrontColor
v 0 -30.6497 6.51469
vt 0 -1.20668
v -7.93022 -30.6497 6.51469
vt 0.312213 -1.20668
v 0 -25.8948 6.51469
vt 0 -1.01948
f 47/73/13 48/74/13 49/75/13

usemtl WindingVolume2
f 49/75/14 48/74/14 47/73/14

g Mesh6 Model

l 2 3

l 4 2

l 1 4

l 3 1

l 5 3

l 8 5

l 7 8

l 6 7

l 2 6

l 11 2

l 10 11

l 6 10

l 5 6

l 5 9

l 5 26

l 26 22

l 26 25

l 26 28

l 8 28

l 8 1

l 29 1

l 32 29

l 32 4

l 31 32

l 30 31

l 30 29

l 3 30

l 12 3

l 11 12

l 13 11

l 13 15

l 19 13

l 19 18

l 12 19

l 12 9

l 12 17

l 18 17

l 15 18

l 15 16

l 16 31

l 11 16

l 17 16

l 17 30

l 2 31

l 9 10

l 22 9

l 23 22

l 23 24

l 10 23

l 10 14

l 24 14

l 24 21

l 21 20

l 21 22

l 20 19

l 9 20

l 14 20

l 14 13

l 25 23

l 27 25

l 7 27

l 7 4

l 28 27

l 6 25

g Mesh7 Model

l 33 34

l 35 33

l 34 35

g Mesh8 Model

l 39 36

l 39 37

l 39 43

l 43 42

l 43 41

l 41 37

l 41 40

l 40 38

l 40 42

l 42 36

l 36 38

l 38 37

g Mesh9 Model

l 45 46

l 44 45

l 46 44

g Mesh10 Model

l 49 47

l 48 49

l 47 48

