# Alias OBJ Model File
# Exported from SketchUp, (c) 2000-2012 Trimble Navigation Limited
# File units = millimeters

mtllib SimpleMagneticConductionHoop.mtl

g Mesh1 Model

usemtl FarFieldMagneticBoundary
v -25 50 -50
vt 0.984252 -1.9685
vn 0 1 0
v 75 50 50
vt -2.95276 1.9685
v 75 50 -50
vt -2.95276 -1.9685
f 1/1/1 2/2/1 3/3/1

v -25 50 50
vt 0.984252 1.9685
f 2/2/1 1/1/1 4/4/1

usemtl BackColor
vn -0 -1 -0
f 3/3/2 2/2/2 1/1/2

usemtl AdiabaticBoundary
vt 1.9685 1.9685
vn 1 0 0
v 75 10 0
vt 0.393701 0
vt 1.9685 -1.9685
f 2/5/3 5/6/3 3/7/3

v 75 9.65926 2.58819
vt 0.380286 0.101897
f 2/5/3 6/8/3 5/6/3

v 75 8.66025 5
vt 0.340955 0.19685
f 2/5/3 7/9/3 6/8/3

v 75 7.07107 7.07107
vt 0.278388 0.278388
f 2/5/3 8/10/3 7/9/3

v 75 5 8.66025
vt 0.19685 0.340955
f 2/5/3 9/11/3 8/10/3

v 75 2.58819 9.65926
vt 0.101897 0.380286
f 2/5/3 10/12/3 9/11/3

v 75 0 10
vt 0 0.393701
f 2/5/3 11/13/3 10/12/3

v 75 -2.58819 9.65926
vt -0.101897 0.380286
f 2/5/3 12/14/3 11/13/3

v 75 -5 8.66025
vt -0.19685 0.340955
f 2/5/3 13/15/3 12/14/3

v 75 -50 50
vt -1.9685 1.9685
f 14/16/3 13/15/3 2/5/3

v 75 -7.07107 7.07107
vt -0.278388 0.278388
f 13/15/3 14/16/3 15/17/3

usemtl BackColor
vn -1 -0 -0
f 2/5/4 13/15/4 14/16/4

f 12/14/4 13/15/4 2/5/4

usemtl MaterialBoundary
v -25 -2.58819 9.65926
vt -0.984252 0.0513883
vn 6.36177e-34 -0.258819 0.965926
vt 2.95276 -0.0513883
vn 4.88277e-34 -0.5 0.866025
vt 2.95276 0.0513883
f 16/18/5 13/19/6 12/20/5

v -25 -5 8.66025
vt -0.984252 -0.0513883
f 13/19/6 16/18/5 17/21/6

usemtl BackColor
vn -4.88277e-34 0.5 -0.866025
vn -6.36177e-34 0.258819 -0.965926
f 17/21/7 16/18/8 13/19/7

usemtl AdiabaticBoundary
vn -1 0 0
f 17/11/9 4/16/9 16/12/9

v -25 -50 50
f 17/11/9 18/5/9 4/16/9

v -25 -7.07107 7.07107
f 19/10/9 18/5/9 17/11/9

v -25 -8.66025 5
f 20/9/9 18/5/9 19/10/9

v -25 -50 -50
f 18/5/9 20/9/9 21/7/9

usemtl BackColor
vn 1 -0 -0
f 21/7/10 20/9/10 18/5/10

usemtl AdiabaticBoundary
v -25 -9.65926 2.58819
f 21/7/9 20/9/9 22/8/9

usemtl BackColor
f 22/8/10 20/9/10 21/7/10

usemtl MaterialBoundary
v 75 -9.65926 2.58819
vn -4.17162e-19 -0.965926 0.258819
vn -4.17162e-19 -0.866025 0.5
f 23/19/11 20/18/12 22/21/11

v 75 -8.66025 5
f 20/18/12 23/19/11 24/20/12

usemtl BackColor
vn 4.17162e-19 0.965926 -0.258819
vn 4.17162e-19 0.866025 -0.5
f 22/21/13 20/18/14 23/19/13

usemtl WindingCurrentSecondBoundary
v -25 -9.65926 -2.58819
vt 0.380286 -0.101897
vn -1 1.54998e-16 -2.01998e-16
f 25/22/15 22/8/15 20/9/15

v -25 -10 -2.52497e-15
vt 0.393701 9.94084e-17
f 22/8/15 25/22/15 26/23/15

usemtl BackColor
vn 1 -1.54998e-16 2.01998e-16
f 26/23/16 25/22/16 22/8/16

usemtl AdiabaticBoundary
vt 0.393701 -9.94084e-17
f 25/22/9 21/7/9 26/24/9

v -25 -8.66025 -5
vt 0.340955 -0.19685
f 27/25/9 21/7/9 25/22/9

v -25 -7.07107 -7.07107
vt 0.278388 -0.278388
f 28/26/9 21/7/9 27/25/9

v -25 -5 -8.66025
vt 0.19685 -0.340955
f 29/27/9 21/7/9 28/26/9

vt -1.9685 -1.9685
f 21/7/9 29/27/9 1/28/9

usemtl BackColor
f 1/28/10 29/27/10 21/7/10

usemtl AdiabaticBoundary
v -25 -2.58819 -9.65926
vt 0.101897 -0.380286
f 1/28/9 29/27/9 30/29/9

usemtl BackColor
f 30/29/10 29/27/10 1/28/10

usemtl MaterialBoundary
v 75 -2.58819 -9.65926
vn 7.41028e-34 -0.258819 -0.965926
vn 1.04693e-34 -0.5 -0.866025
f 31/19/17 29/18/18 30/21/17

v 75 -5 -8.66025
f 29/18/18 31/19/17 32/20/18

usemtl BackColor
vn -7.41028e-34 0.258819 0.965926
vn -1.04693e-34 0.5 0.866025
f 30/21/19 29/18/20 31/19/19

usemtl WindingCurrentSecondBoundary
f 29/27/15 16/12/15 30/29/15

f 29/27/15 17/11/15 16/12/15

f 28/26/15 17/11/15 29/27/15

f 28/26/15 19/10/15 17/11/15

f 27/25/15 19/10/15 28/26/15

f 27/25/15 20/9/15 19/10/15

f 25/22/15 20/9/15 27/25/15

usemtl BackColor
f 20/9/16 22/8/16 25/22/16

f 27/25/16 20/9/16 25/22/16

f 19/10/16 20/9/16 27/25/16

f 19/10/10 18/5/10 20/9/10

f 17/11/10 18/5/10 19/10/10

f 4/16/10 18/5/10 17/11/10

usemtl FarFieldMagneticBoundary
vt 2.95276 -1.9685
vn 0 0 1
vt -0.984252 1.9685
vt -0.984252 -1.9685
f 14/30/21 4/31/21 18/32/21

vt 2.95276 1.9685
f 4/31/21 14/30/21 2/33/21

usemtl BackColor
vn -0 -0 -1
f 18/32/22 4/31/22 14/30/22

f 2/33/22 14/30/22 4/31/22

f 4/4/2 1/1/2 2/2/2

usemtl AdiabaticBoundary
v -25 10 -2.52497e-15
vt -0.393701 -9.94084e-17
f 1/28/9 33/34/9 4/16/9

v -25 9.65926 -2.58819
vt -0.380286 -0.101897
f 1/28/9 34/35/9 33/34/9

v -25 8.66025 -5
vt -0.340955 -0.19685
f 1/28/9 35/36/9 34/35/9

v -25 7.07107 -7.07107
vt -0.278388 -0.278388
f 1/28/9 36/37/9 35/36/9

v -25 5 -8.66025
vt -0.19685 -0.340955
f 1/28/9 37/38/9 36/37/9

v -25 2.58819 -9.65926
vt -0.101897 -0.380286
f 1/28/9 38/39/9 37/38/9

v -25 4.75745e-15 -10
vt -1.87301e-16 -0.393701
f 1/28/9 39/40/9 38/39/9

f 1/28/9 30/29/9 39/40/9

usemtl BackColor
f 39/40/10 30/29/10 1/28/10

usemtl MaterialBoundary
vn 0 -0.130526 -0.991445
f 39/21/23 31/20/17 30/18/17

v 75 2.81997e-15 -10
f 31/20/17 39/21/23 40/19/23

usemtl BackColor
vn -0 0.130526 0.991445
f 30/18/19 31/20/19 39/21/24

f 40/19/24 39/21/24 31/20/19

usemtl MaterialBoundary
vt 0.984252 -0.0513883
vn 0 0.130526 -0.991445
v 75 2.58819 -9.65926
vt -2.95276 0.0513883
vn 0 0.258819 -0.965926
vt -2.95276 -0.0513883
f 39/41/25 41/42/26 40/43/25

vt 0.984252 0.0513883
f 41/42/26 39/41/25 38/44/26

usemtl BackColor
vn -0 -0.258819 0.965926
vn -0 -0.130526 0.991445
f 38/44/27 39/41/28 41/42/27

f 38/39/10 39/40/10 1/28/10

usemtl WindingCurrentSecondBoundary
vt -3.47436e-17 -0.393701
v -25 2.58819 9.65926
f 39/45/15 42/14/15 38/39/15

v -25 1.93748e-15 10
vt 7.62787e-17 0.393701
f 39/45/15 43/46/15 42/14/15

f 30/29/15 43/46/15 39/45/15

f 30/29/15 16/12/15 43/46/15

usemtl BackColor
f 30/29/16 16/12/16 29/27/16

f 43/46/16 16/12/16 30/29/16

usemtl AdiabaticBoundary
vt -7.62787e-17 0.393701
f 16/12/9 4/16/9 43/47/9

usemtl BackColor
f 16/12/10 4/16/10 17/11/10

f 43/47/10 4/16/10 16/12/10

usemtl AdiabaticBoundary
f 43/47/9 4/16/9 42/14/9

usemtl BackColor
f 42/14/10 4/16/10 43/47/10

usemtl AdiabaticBoundary
v -25 5 8.66025
f 42/14/9 4/16/9 44/15/9

usemtl BackColor
f 44/15/10 4/16/10 42/14/10

usemtl AdiabaticBoundary
v -25 7.07107 7.07107
f 44/15/9 4/16/9 45/17/9

usemtl BackColor
f 45/17/10 4/16/10 44/15/10

usemtl AdiabaticBoundary
v -25 8.66025 5
vt -0.340955 0.19685
f 45/17/9 4/16/9 46/48/9

usemtl BackColor
f 46/48/10 4/16/10 45/17/10

usemtl AdiabaticBoundary
v -25 9.65926 2.58819
vt -0.380286 0.101897
f 46/48/9 4/16/9 47/49/9

usemtl BackColor
f 47/49/10 4/16/10 46/48/10

usemtl AdiabaticBoundary
f 47/49/9 4/16/9 33/34/9

usemtl BackColor
f 33/34/10 4/16/10 47/49/10

f 4/16/10 33/34/10 1/28/10

f 33/34/10 34/35/10 1/28/10

usemtl MaterialBoundary
vn 0 0.991445 -0.130526
v 75 9.65926 -2.58819
vn 0 0.965926 -0.258819
f 33/44/29 48/43/30 34/41/30

f 48/43/30 33/44/29 5/42/29

usemtl BackColor
vn -0 -0.965926 0.258819
vn -0 -0.991445 0.130526
f 34/41/31 48/43/31 33/44/32

usemtl MaterialBoundary
v 75 8.66025 -5
vn 0 0.866025 -0.5
f 49/43/33 34/44/30 48/42/30

f 34/44/30 49/43/33 35/41/33

usemtl BackColor
vn -0 -0.866025 0.5
f 35/41/34 49/43/34 34/44/31

usemtl MaterialBoundary
v 75 7.07107 -7.07107
vn 0 0.707107 -0.707107
f 50/43/35 35/44/33 49/42/33

f 35/44/33 50/43/35 36/41/35

usemtl BackColor
vn -0 -0.707107 0.707107
f 36/41/36 50/43/36 35/44/34

usemtl MaterialBoundary
vn 0 0.5 -0.866025
f 50/42/35 37/41/37 36/44/35

v 75 5 -8.66025
f 37/41/37 50/42/35 51/43/37

usemtl BackColor
vn -0 -0.5 0.866025
f 36/44/36 37/41/38 50/42/36

f 36/37/10 37/38/10 1/28/10

usemtl WindingCurrentSecondBoundary
f 37/38/15 45/17/15 36/37/15

f 37/38/15 44/15/15 45/17/15

f 38/39/15 44/15/15 37/38/15

f 38/39/15 42/14/15 44/15/15

usemtl BackColor
f 38/39/16 42/14/16 39/45/16

f 44/15/16 42/14/16 38/39/16

usemtl MaterialBoundary
vn 5.95624e-21 0.258819 0.965926
vn 0 0.5 0.866025
f 10/42/39 44/41/40 42/44/39

f 44/41/40 10/42/39 9/43/40

usemtl BackColor
vn -5.95624e-21 -0.258819 -0.965926
vn -0 -0.5 -0.866025
f 42/44/41 44/41/42 10/42/41

f 9/43/42 10/42/41 44/41/42

f 9/11/4 10/12/4 2/5/4

usemtl WindingCurrentFirstBoundary
vn 1 3.44596e-31 -2.78327e-31
f 10/12/43 51/27/43 9/11/43

f 10/12/43 41/29/43 51/27/43

vt 1.11022e-16 -0.393701
f 10/12/43 40/50/43 41/29/43

vt -1.01751e-30 0.393701
f 11/51/43 40/50/43 10/12/43

f 11/51/43 31/39/43 40/50/43

f 12/14/43 31/39/43 11/51/43

f 12/14/43 32/38/43 31/39/43

f 13/15/43 32/38/43 12/14/43

v 75 -7.07107 -7.07107
f 13/15/43 52/37/43 32/38/43

f 15/17/43 52/37/43 13/15/43

v 75 -8.66025 -5
f 15/17/43 53/36/43 52/37/43

f 24/48/43 53/36/43 15/17/43

v 75 -9.65926 -2.58819
f 24/48/43 54/35/43 53/36/43

f 23/49/43 54/35/43 24/48/43

v 75 -10 0
vt -0.393701 8.21833e-31
f 54/35/43 23/49/43 55/52/43

usemtl BackColor
vn -1 -3.44596e-31 2.78327e-31
f 55/52/44 23/49/44 54/35/44

usemtl AdiabaticBoundary
vt -0.393701 0
f 23/49/3 14/16/3 55/53/3

f 24/48/3 14/16/3 23/49/3

f 15/17/3 14/16/3 24/48/3

usemtl BackColor
f 15/17/4 14/16/4 13/15/4

f 24/48/4 14/16/4 15/17/4

f 23/49/4 14/16/4 24/48/4

f 55/53/4 14/16/4 23/49/4

usemtl AdiabaticBoundary
f 14/16/3 54/35/3 55/53/3

f 14/16/3 53/36/3 54/35/3

v 75 -50 -50
f 56/28/3 53/36/3 14/16/3

f 53/36/3 56/28/3 52/37/3

usemtl BackColor
f 14/16/4 53/36/4 56/28/4

f 54/35/4 53/36/4 14/16/4

usemtl MaterialBoundary
vn -7.41028e-34 -0.965926 -0.258819
vn -1.22931e-33 -0.866025 -0.5
f 25/18/45 53/19/46 54/20/45

f 53/19/46 25/18/45 27/21/46

usemtl BackColor
vn 1.22931e-33 0.866025 0.5
vn 7.41028e-34 0.965926 0.258819
f 27/21/47 25/18/48 53/19/47

f 25/22/10 21/7/10 27/25/10

f 26/24/10 21/7/10 25/22/10

usemtl AdiabaticBoundary
f 21/7/9 22/8/9 26/24/9

usemtl BackColor
f 26/24/10 22/8/10 21/7/10

usemtl MaterialBoundary
vn 0 -0.991445 0.130526
f 55/19/49 22/18/11 26/21/49

f 22/18/11 55/19/49 23/20/11

usemtl BackColor
vn -0 0.991445 -0.130526
f 26/21/50 22/18/13 55/19/50

f 23/20/13 55/19/50 22/18/13

usemtl MaterialBoundary
vn 0 -0.991445 -0.130526
f 26/18/51 54/19/45 55/20/51

f 54/19/45 26/18/51 25/21/45

usemtl BackColor
vn -0 0.991445 0.130526
f 25/21/48 26/18/52 54/19/48

f 55/20/52 54/19/48 26/18/52

f 55/53/4 54/35/4 14/16/4

f 54/20/48 53/19/47 25/18/48

f 53/36/44 54/35/44 24/48/44

f 24/48/44 54/35/44 23/49/44

f 24/20/14 23/19/13 20/18/14

usemtl MaterialBoundary
vn 4.88277e-34 -0.707107 0.707107
f 24/19/12 19/18/53 20/21/12

f 19/18/53 24/19/12 15/20/53

usemtl BackColor
vn -4.88277e-34 0.707107 -0.707107
f 20/21/14 19/18/54 24/19/14

f 15/20/54 24/19/14 19/18/54

f 15/17/44 53/36/44 24/48/44

f 52/37/44 53/36/44 15/17/44

f 52/37/4 56/28/4 53/36/4

usemtl AdiabaticBoundary
f 52/37/3 56/28/3 32/38/3

usemtl BackColor
f 32/38/4 56/28/4 52/37/4

usemtl AdiabaticBoundary
f 32/38/3 56/28/3 3/7/3

usemtl BackColor
f 3/7/4 56/28/4 32/38/4

usemtl FarFieldMagneticBoundary
vn -5.12721e-17 7.04992e-17 -1
f 21/1/55 3/2/55 56/3/55

f 3/2/55 21/1/55 1/4/55

usemtl BackColor
vn 5.12721e-17 -7.04992e-17 1
f 1/4/56 21/1/56 3/2/56

f 56/3/56 3/2/56 21/1/56

usemtl FarFieldMagneticBoundary
vn 0 -1 0
f 14/33/57 21/32/57 56/30/57

f 21/32/57 14/33/57 18/31/57

usemtl BackColor
vn -0 1 -0
f 56/30/58 21/32/58 14/33/58

f 18/31/58 14/33/58 21/32/58

usemtl AdiabaticBoundary
f 32/38/3 3/7/3 31/39/3

usemtl BackColor
f 31/39/4 3/7/4 32/38/4

usemtl AdiabaticBoundary
f 31/39/3 3/7/3 40/50/3

usemtl BackColor
f 40/50/4 3/7/4 31/39/4

usemtl AdiabaticBoundary
f 40/50/3 3/7/3 41/29/3

usemtl BackColor
f 41/29/4 3/7/4 40/50/4

usemtl AdiabaticBoundary
f 41/29/3 3/7/3 51/27/3

usemtl BackColor
f 51/27/4 3/7/4 41/29/4

usemtl AdiabaticBoundary
f 51/27/3 3/7/3 50/26/3

usemtl BackColor
f 50/26/4 3/7/4 51/27/4

usemtl AdiabaticBoundary
f 50/26/3 3/7/3 49/25/3

usemtl BackColor
f 49/25/4 3/7/4 50/26/4

usemtl AdiabaticBoundary
f 49/25/3 3/7/3 48/22/3

usemtl BackColor
f 48/22/4 3/7/4 49/25/4

usemtl AdiabaticBoundary
f 48/22/3 3/7/3 5/6/3

usemtl BackColor
f 5/6/4 3/7/4 48/22/4

f 3/7/4 5/6/4 2/5/4

f 5/6/4 6/8/4 2/5/4

usemtl MaterialBoundary
vn 0 0.991445 0.130526
vn 0 0.965926 0.258819
f 5/43/59 47/44/60 6/42/60

f 47/44/60 5/43/59 33/41/59

usemtl BackColor
vn -0 -0.991445 -0.130526
vn -0 -0.965926 -0.258819
f 33/41/61 5/43/61 47/44/62

f 5/42/32 33/44/32 48/43/31

usemtl WindingCurrentFirstBoundary
vt 0.393701 8.21833e-31
f 6/8/43 48/22/43 5/54/43

f 6/8/43 49/25/43 48/22/43

f 7/9/43 49/25/43 6/8/43

f 8/10/43 49/25/43 7/9/43

f 8/10/43 50/26/43 49/25/43

f 8/10/43 51/27/43 50/26/43

f 9/11/43 51/27/43 8/10/43

usemtl BackColor
f 9/11/44 51/27/44 10/12/44

f 8/10/44 51/27/44 9/11/44

f 50/26/44 51/27/44 8/10/44

f 51/43/38 50/42/36 37/41/38

usemtl MaterialBoundary
f 51/42/37 38/41/26 37/44/37

f 38/41/26 51/42/37 41/43/26

usemtl BackColor
f 37/44/38 38/41/27 51/42/38

f 37/38/10 38/39/10 1/28/10

f 37/38/16 44/15/16 38/39/16

f 45/17/16 44/15/16 37/38/16

usemtl MaterialBoundary
vn 0 0.707107 0.707107
f 9/42/40 45/41/63 44/44/40

f 45/41/63 9/42/40 8/43/63

usemtl BackColor
vn -0 -0.707107 -0.707107
f 44/44/42 45/41/64 9/42/42

f 8/43/64 9/42/42 45/41/64

f 8/10/4 9/11/4 2/5/4

f 7/9/4 8/10/4 2/5/4

usemtl MaterialBoundary
vn 0 0.866025 0.5
f 7/43/65 45/44/63 8/42/63

f 45/44/63 7/43/65 46/41/65

usemtl BackColor
vn -0 -0.866025 -0.5
f 46/41/66 7/43/66 45/44/64

usemtl MaterialBoundary
f 6/43/60 46/44/65 7/42/65

f 46/44/65 6/43/60 47/41/60

usemtl BackColor
f 47/41/62 6/43/62 46/44/66

f 6/42/62 47/44/62 5/43/61

f 5/54/44 48/22/44 6/8/44

f 48/22/44 49/25/44 6/8/44

f 48/42/31 34/44/31 49/43/34

f 6/8/44 49/25/44 7/9/44

f 7/9/44 49/25/44 8/10/44

f 49/25/44 50/26/44 8/10/44

f 49/42/34 35/44/34 50/43/36

f 8/42/64 45/44/64 7/43/66

f 6/8/4 7/9/4 2/5/4

f 7/42/66 46/44/66 6/43/62

usemtl WindingCurrentSecondBoundary
f 35/36/15 46/48/15 47/49/15

f 36/37/15 46/48/15 35/36/15

f 36/37/15 45/17/15 46/48/15

usemtl BackColor
f 36/37/16 45/17/16 37/38/16

f 46/48/16 45/17/16 36/37/16

f 35/36/16 46/48/16 36/37/16

f 47/49/16 46/48/16 35/36/16

usemtl WindingCurrentSecondBoundary
f 35/36/15 47/49/15 34/35/15

usemtl BackColor
f 34/35/16 47/49/16 35/36/16

usemtl WindingCurrentSecondBoundary
vt -0.393701 9.94084e-17
f 34/35/15 47/49/15 33/55/15

usemtl BackColor
f 33/55/16 47/49/16 34/35/16

f 34/35/10 35/36/10 1/28/10

f 35/36/10 36/37/10 1/28/10

f 41/43/27 51/42/38 38/41/27

f 51/27/44 41/29/44 10/12/44

f 41/29/44 40/50/44 10/12/44

f 40/43/28 41/42/27 39/41/28

f 10/12/44 40/50/44 11/51/44

f 40/50/44 31/39/44 11/51/44

f 11/51/44 31/39/44 12/14/44

f 31/39/44 32/38/44 12/14/44

f 32/20/20 31/19/19 29/18/20

usemtl MaterialBoundary
vn -1.12461e-33 -0.707107 -0.707107
f 32/19/18 28/18/67 29/21/18

f 28/18/67 32/19/18 52/20/67

usemtl BackColor
vn 1.12461e-33 0.707107 0.707107
f 29/21/20 28/18/68 32/19/20

f 28/26/10 21/7/10 29/27/10

f 27/25/10 21/7/10 28/26/10

usemtl MaterialBoundary
f 28/21/67 53/20/46 27/18/46

f 53/20/46 28/21/67 52/19/67

usemtl BackColor
f 52/19/68 28/21/68 53/20/47

f 52/20/68 32/19/20 28/18/68

f 32/38/44 52/37/44 13/15/44

f 13/15/44 52/37/44 15/17/44

usemtl MaterialBoundary
f 17/18/6 15/19/53 13/20/6

f 15/19/53 17/18/6 19/21/53

usemtl BackColor
f 19/21/54 17/18/7 15/19/54

f 17/11/16 19/10/16 28/26/16

f 28/26/16 19/10/16 27/25/16

f 27/18/47 53/20/47 28/21/68

f 29/27/16 17/11/16 28/26/16

f 16/12/16 17/11/16 29/27/16

f 13/20/7 15/19/54 17/18/7

f 12/14/44 32/38/44 13/15/44

f 12/20/8 13/19/7 16/18/8

usemtl MaterialBoundary
vn 1.26147e-33 -0.130526 0.991445
f 12/19/5 43/18/69 16/21/5

v 25 0 10
f 43/18/69 12/19/5 57/44/69

usemtl BackColor
vn -1.26147e-33 0.130526 -0.991445
f 16/21/8 43/18/70 12/19/8

f 57/44/70 12/19/8 43/18/70

usemtl MaterialBoundary
f 57/44/69 12/19/5 11/20/69

usemtl BackColor
f 11/20/70 12/19/8 57/44/70

f 11/13/4 12/14/4 2/5/4

f 10/12/4 11/13/4 2/5/4

usemtl MaterialBoundary
vn 1.18106e-20 0.130526 0.991445
f 10/43/39 57/18/71 11/42/71

f 42/41/39 57/18/71 10/43/39

f 57/18/71 42/41/39 43/44/71

usemtl BackColor
vn -1.18106e-20 -0.130526 -0.991445
f 43/44/72 42/41/41 57/18/72

f 42/14/16 43/46/16 39/45/16

f 39/45/16 43/46/16 30/29/16

f 10/43/41 57/18/72 42/41/41

f 11/42/72 57/18/72 10/43/41

g Mesh2 Model

usemtl CoreVolume
v 4.13781 -4.14605 -24.118
vt 0.162906 -0.16323
v 1.04677 -14.7902 -24.118
vt 0.0412116 -0.58229
v 4.13781 -14.7902 -24.118
vt 0.162906 -0.58229
f 58/56/21 59/57/21 60/58/21

usemtl BackColor
f 60/58/22 59/57/22 58/56/22

g Mesh3 Model

usemtl WindingVolume
v 42.6152 -0.927876 -7.55659
vt 1.67776 -0.0365306
v 39.1944 -0.927876 -7.55659
vt 1.54309 -0.0365306
v 39.1944 -3.83436 -7.55659
vt 1.54309 -0.150959
f 61/59/21 62/60/21 63/61/21

usemtl BackColor
f 63/61/22 62/60/22 61/59/22

g Mesh4 Model

l 2 3

l 2 14

l 2 4

l 4 1

l 4 18

l 18 14

l 18 21

l 21 56

l 21 1

l 1 3

l 3 56

l 56 14

g Mesh5 Model

l 59 60

l 58 59

l 60 58

g Mesh6 Model

l 61 62

l 63 61

l 62 63

g Mesh7 Model

l 40 39

l 40 31

l 41 40

l 51 41

l 50 51

l 49 50

l 48 49

l 5 48

l 5 33

l 6 5

l 7 6

l 8 7

l 9 8

l 10 9

l 11 10

l 57 11

l 57 43

l 16 43

l 17 16

l 19 17

l 20 19

l 22 20

l 26 22

l 55 26

l 55 23

l 54 55

l 53 54

l 52 53

l 32 52

l 31 32

l 23 24

l 24 15

l 15 13

l 13 12

l 12 11

l 25 26

l 27 25

l 28 27

l 29 28

l 30 29

l 39 30

l 38 39

l 37 38

l 36 37

l 35 36

l 34 35

l 33 34

l 47 33

l 46 47

l 45 46

l 44 45

l 42 44

l 43 42

